<?xml version="1.0" encoding="UTF-8"?>
<!DOCTYPE svg PUBLIC "-//W3C//DTD SVG 1.1//EN" "http://www.w3.org/Graphics/SVG/1.1/DTD/svg11.dtd">
<!-- Creator: CorelDRAW X7 -->
<svg xmlns="http://www.w3.org/2000/svg" xml:space="preserve" width="297mm" height="420mm" version="1.1" style="shape-rendering:geometricPrecision; text-rendering:geometricPrecision; image-rendering:optimizeQuality; fill-rule:evenodd; clip-rule:evenodd"
viewBox="0 0 29700 42000"
 xmlns:xlink="http://www.w3.org/1999/xlink">
 <defs>
  <style type="text/css">
   <![CDATA[
    .str0 {stroke:black;stroke-width:7.62}
    .fil0 {fill:white}
   ]]>
  </style>
 </defs>
 <g id="Layer_x0020_1">
  <metadata id="CorelCorpID_0Corel-Layer"/>
  <path class="fil0 str0" d="M8732 26672l379 -3c11,-5 322,-47 375,-58 763,-162 1401,-641 1616,-1454 132,-498 2,-1077 -281,-1371 -138,-143 -275,-265 -513,-358 -206,-81 -514,-152 -740,-68 -96,36 -199,118 -205,229 -16,297 514,164 829,469 165,161 268,329 293,582 69,708 -406,1397 -1111,1512 -545,89 -991,-176 -1256,-456 -285,-301 -457,-687 -540,-1212 -152,-958 113,-1984 760,-2646 326,-334 565,-526 1005,-755 371,-193 859,-353 1304,-451 980,-218 2307,-162 3341,-172 320,-3 1447,7 1743,-33 78,-120 216,-535 14,-614 -142,-56 -408,16 -707,-124 -456,-215 -402,-705 -270,-1210 174,-660 331,-1330 508,-1991 31,-116 57,-219 89,-334 32,-111 74,-220 101,-323 640,39 885,455 1208,927 350,511 986,1456 1232,1972 110,231 287,593 85,806 -172,180 -544,207 -825,243 -179,22 -275,60 -338,194 -44,93 -95,335 -99,454l4564 -44c251,-3 504,-2 756,-7 120,-2 145,-115 170,-211 29,-113 46,-229 35,-354 -414,-188 -832,-150 -1201,-487 -55,-50 -107,-84 -148,-136 -40,-52 -88,-100 -133,-150 -324,-370 -621,-1004 -846,-1439 -129,-250 -264,-491 -392,-743 -125,-247 -262,-506 -400,-736 -73,-121 -138,-237 -214,-354 -147,-227 -290,-464 -481,-653 -82,-82 -244,-188 -301,-275 124,-131 485,-366 657,-509l782 -695c52,-53 96,-101 146,-148 30,-29 46,-36 76,-66l293 -298c29,-31 37,-51 69,-83l292 -298c55,-55 86,-101 140,-155l737 -727c1012,-977 2656,-708 3823,-113 378,192 735,436 1036,731 204,201 358,420 509,673 422,705 539,2098 90,2882 -38,68 -68,121 -111,183 -49,70 -80,103 -131,163 -91,108 -190,196 -315,276 -560,361 -1258,285 -1710,-187 -267,-278 -479,-909 -326,-1331 101,-279 327,-479 608,-560 217,-63 439,-11 429,-303 -2,-67 -2,-69 -50,-101 -234,-154 -442,-137 -710,-61 -567,161 -1002,656 -992,1360 18,1310 1370,2117 2743,1865 474,-87 852,-286 1209,-567 29,-23 46,-42 76,-66 279,-225 527,-606 661,-965 54,-146 95,-300 125,-462l60 -522 -4 -434c-8,-17 -43,-281 -62,-348 -29,-104 -44,-221 -73,-331 -54,-206 -136,-412 -226,-592 -1075,-2155 -3111,-2618 -5471,-2594 -268,2 -3019,-10 -3205,37 -181,633 -108,622 153,643 92,7 198,13 287,28 481,82 490,362 274,739 -79,139 -171,282 -262,386 -103,120 -185,242 -295,353 -36,36 -45,53 -76,89 -79,94 -652,667 -733,731l-339 310c-133,130 -557,468 -718,582 -461,323 -1359,881 -1998,919 20,-111 61,-251 92,-369l286 -1110c66,-258 125,-491 192,-748 186,-708 289,-1578 996,-1804 630,-202 892,89 1039,-372 30,-93 79,-268 84,-368 -158,-24 -5047,50 -5195,51 -58,213 -134,366 -98,619 247,32 543,10 764,78 214,66 380,181 428,422 74,377 -147,1062 -243,1414 -119,437 -242,890 -350,1338l-165 680c-70,210 -124,447 -181,664 -233,877 -450,1808 -686,2695 -65,248 -101,416 -225,620 -647,1071 -2591,436 -4341,1633 -622,426 -1177,1042 -1502,1893 -146,380 -273,976 -236,1437 41,504 126,966 357,1354 157,265 119,186 265,372 33,40 67,70 105,108 367,362 862,633 1377,742 48,10 352,47 363,51z"/>
  <path class="fil0 str0" d="M635 4074l5 446c16,40 28,234 39,301 117,679 361,1176 752,1725 46,64 100,133 153,190 233,252 427,466 730,674 1069,735 1645,703 2936,914 420,69 776,165 745,661 -14,215 -64,394 -112,593 -448,1861 -987,3711 -1434,5559 -132,543 -240,1112 -652,1453 -642,530 -1411,198 -1671,453 -89,86 -181,356 -178,522l9285 -91c204,-2 264,29 324,-88l611 -1808c50,-157 171,-479 181,-619 -154,-31 -497,-40 -630,97 -95,97 -213,334 -297,469 -169,269 -259,418 -501,630 -656,578 -2038,451 -2977,460 -250,3 -500,12 -743,14 -942,8 -908,-63 -602,-1288 99,-397 203,-808 309,-1204 101,-378 173,-856 330,-1186 141,-15 2124,-24 2323,-26 1577,-16 1089,556 1168,1101 225,53 361,38 598,26l822 -3183c-129,-17 -533,-25 -637,92 -53,61 -83,159 -122,243 -41,87 -76,162 -125,240 -221,358 -471,506 -917,561 -322,39 -1748,45 -2165,49 -244,2 -484,-8 -731,-5 6,-79 91,-424 114,-517 212,-837 460,-1690 662,-2506 157,-634 11,-551 710,-543 843,10 1706,-16 2550,-24 401,-4 825,-33 1009,259 203,324 6,916 125,1115 152,53 384,38 560,31l434 -2323c-1043,-33 -1874,12 -2892,22l-2938 28c-647,7 -1294,32 -1936,13 -1151,-36 -2193,-439 -2868,-1019 -27,-23 -40,-26 -66,-52 -22,-22 -31,-42 -54,-63l-125 -123c-45,-51 -77,-81 -118,-130 -547,-668 -778,-1585 -670,-2472 48,-393 169,-753 384,-1062 79,-115 139,-178 228,-267 778,-779 2134,-367 2280,856 35,296 -50,602 -205,770 -481,523 -925,171 -870,598 36,282 704,251 1083,19 454,-279 700,-736 666,-1287 -18,-277 -86,-563 -212,-774 -101,-170 -191,-283 -321,-412 -649,-640 -1475,-650 -1521,-671l-328 4c-117,47 -408,-49 -1019,259 -270,136 -365,220 -573,385 -92,74 -234,221 -313,313 -146,173 -263,370 -355,587 -63,149 -117,314 -156,477 -21,90 -38,176 -51,267 -7,47 -18,239 -31,267z"/>
 </g>
</svg>
